<svg xmlns="http://www.w3.org/2000/svg" xmlns:xlink="http://www.w3.org/1999/xlink" viewBox="0 0 130 34"><defs><style>.cls-1{isolation:isolate;}.cls-2{fill:url(#radial-gradient);}.cls-3{fill:url(#radial-gradient-2);}.cls-4,.cls-7{fill:#fff;}.cls-4{opacity:0.2;mix-blend-mode:overlay;}.cls-5{fill:url(#radial-gradient-3);}.cls-6{fill:url(#radial-gradient-4);}.cls-8{fill:url(#linear-gradient);}.cls-9{fill:url(#radial-gradient-5);}.cls-10{fill:#5c2d77;}.cls-11{fill:#e91467;}.cls-12{fill:none;}</style><radialGradient id="radial-gradient" cx="26.35" cy="24.19" r="11.63" gradientTransform="translate(0 -3.85) scale(1 0.97)" gradientUnits="userSpaceOnUse"><stop offset="0.01" stop-color="#a40054"/><stop offset="0.21" stop-color="#9e0457"/><stop offset="0.49" stop-color="#8d0f5f"/><stop offset="0.81" stop-color="#71206d"/><stop offset="1" stop-color="#5c2d77"/></radialGradient><radialGradient id="radial-gradient-2" cx="15.16" cy="12.98" r="21.81" xlink:href="#radial-gradient"/><radialGradient id="radial-gradient-3" cx="23.44" cy="20.45" r="12.42" gradientTransform="translate(0 -3.85) scale(1 0.97)" gradientUnits="userSpaceOnUse"><stop offset="0" stop-color="#17dcb8"/><stop offset="0.02" stop-color="#17d9b8"/><stop offset="0.21" stop-color="#19b5b8"/><stop offset="0.41" stop-color="#1a99b8"/><stop offset="0.61" stop-color="#1a85b8"/><stop offset="0.8" stop-color="#1b79b8"/><stop offset="1" stop-color="#1b75b8"/></radialGradient><radialGradient id="radial-gradient-4" cx="13.44" cy="6.31" r="13.21" gradientUnits="userSpaceOnUse"><stop offset="0" stop-color="#fbae08"/><stop offset="0.02" stop-color="#fbaa0b"/><stop offset="0.26" stop-color="#f4752b"/><stop offset="0.49" stop-color="#ef4b45"/><stop offset="0.7" stop-color="#ec2d58"/><stop offset="0.87" stop-color="#ea1b63"/><stop offset="1" stop-color="#e91467"/></radialGradient><linearGradient id="linear-gradient" x1="21.94" y1="10.21" x2="35.81" y2="15.69" gradientUnits="userSpaceOnUse"><stop offset="0" stop-color="#17dcb8"/><stop offset="0.01" stop-color="#17d9b8"/><stop offset="0.18" stop-color="#19b5b8"/><stop offset="0.34" stop-color="#1a99b8"/><stop offset="0.5" stop-color="#1a85b8"/><stop offset="0.67" stop-color="#1b79b8"/><stop offset="0.83" stop-color="#1b75b8"/></linearGradient><radialGradient id="radial-gradient-5" cx="35.31" cy="23.74" r="7.17" xlink:href="#radial-gradient-3"/></defs><title>Asset 6</title><g class="cls-1"><g id="Layer_2" data-name="Layer 2"><g id="Layer_1-2" data-name="Layer 1"><path class="cls-2" d="M24.54,19.63l-.35.57c-.53.81-1.11,1.6-1.65,2.41a20.09,20.09,0,0,0-1.48,2.44,8.4,8.4,0,0,0-.86,2.51,8.1,8.1,0,0,0-.11,1.19c0,.33,0,3.18,2.45,4.18s3.4-.3,3.56-.51A20.67,20.67,0,0,1,27.41,21c.74-1.88,1.67-4,2.32-6.14A10.62,10.62,0,0,1,24.54,19.63Z"/><path class="cls-3" d="M11.1,32.42s.51,1,3.18,1.54c4.19.57,4.27-4.88,4.27-4.88h0a9.47,9.47,0,0,1,.24-1.81A10.26,10.26,0,0,1,20,24.48,22.52,22.52,0,0,1,21.68,22c.51-.65,1-1.27,1.5-1.9a10.84,10.84,0,0,1-3,.42A10.58,10.58,0,0,1,9.39,10.14,10.48,10.48,0,0,1,17.68,0a15.13,15.13,0,0,0-7.83,1.7C6,4,2.91,8.39,4.1,12.94c.62,2.34-1.77,4.35-3.23,5.57S1,20.24,2,20.81s1.86,1.06,1.1,2C2.6,23.34,4.28,24,4.28,24s-1.43,1-.94,1.69,1,.61.58,2,.1,3,3.27,2.25S11.74,29.83,11.1,32.42Z"/><path class="cls-4" d="M20.14,20.54A10.58,10.58,0,0,1,9.39,10.14,10.48,10.48,0,0,1,17.68,0a15.13,15.13,0,0,0-7.83,1.7l-.07.05A8.54,8.54,0,0,0,7.45,4.29,8,8,0,0,0,6.22,8c-.33,3.69,1.25,7.34,3.21,10.37C11,20.88,13.49,23,14.67,25.78a10.35,10.35,0,0,1,.87,4.81c0,.37-.37,3.43-.87,3.4,3.8.19,3.88-4.91,3.88-4.91h0a9.47,9.47,0,0,1,.24-1.81A10.26,10.26,0,0,1,20,24.48,22.52,22.52,0,0,1,21.68,22c.47-.6.95-1.19,1.4-1.77l.06-.12A11,11,0,0,1,20.14,20.54Z"/><path class="cls-5" d="M17.76,17.27A5,5,0,0,0,19.3,22.7a3.08,3.08,0,0,0,1.34.72c.34-.48.69-1,1-1.4s.61-.77.91-1.15c2.47-6.7-5.82-9.2-5.82-9.2C18.19,12.51,18.79,13.77,17.76,17.27Z"/><path class="cls-6" d="M22.48,5.11a4.22,4.22,0,0,0-3.06,1.3,4.25,4.25,0,0,0-7.31,3c0,2.35,2.33,6.39,7.31,7.56,5-1.17,7.31-5.21,7.31-7.56A4.25,4.25,0,0,0,22.48,5.11Z"/><path class="cls-4" d="M15.25,13.28C13.43,9.6,16.13,6.1,17,5.15a5.85,5.85,0,0,0-.6,0,4.25,4.25,0,0,0-4.25,4.26c0,2,1.74,5.32,5.42,6.93A9.49,9.49,0,0,1,15.25,13.28Z"/><path class="cls-7" d="M21.37,10.06h-.94V9.12A.41.41,0,0,0,20,8.71H18.84a.41.41,0,0,0-.41.41v.94h-.94a.41.41,0,0,0-.41.41v1.18a.41.41,0,0,0,.41.4h.94V13a.4.4,0,0,0,.41.4H20a.41.41,0,0,0,.41-.4v-.95h.94a.4.4,0,0,0,.4-.4V10.47A.4.4,0,0,0,21.37,10.06Z"/><path class="cls-8" d="M27,1c1.28,2.42,1,4.76-3.7,8.9A8.43,8.43,0,0,0,20.58,19a5.21,5.21,0,0,0,1.53,2.44c.47-.59.94-1.17,1.37-1.74C24,19,24.56,18.21,25,17.45a24,24,0,0,0,1.2-2.28c.16-.37.33-.73.47-1.09.07-.17.14-.35.2-.52s.12-.35.18-.51A27.55,27.55,0,0,0,28,9.74l.22-1.27s0,.46-.13,1.29a25.58,25.58,0,0,1-.67,3.38c0,.17-.09.35-.14.53s-.11.36-.17.54c-.11.37-.26.75-.4,1.14-.3.78-.65,1.58-1.06,2.4s-.9,1.63-1.42,2.45l-.88,1.29c.38-.19.86-.44,1.34-.71C38.08,13.26,27,1,27,1Z"/><path class="cls-4" d="M27,1c1.28,2.42,1,4.76-3.7,8.9A8.43,8.43,0,0,0,20.58,19a5.21,5.21,0,0,0,1.53,2.44c.47-.59.94-1.17,1.37-1.74C24,19,24.56,18.21,25,17.45c.16-.27.3-.53.44-.78a27.73,27.73,0,0,0,1.29-2.75c.05-.12.1-.24.14-.36s.12-.35.18-.51A27.55,27.55,0,0,0,28,9.74c.1-.59.17-1,.21-1.17C28.74,3.72,27,1,27,1Z"/><path class="cls-9" d="M25.74,17.47l-.13.28c-.42.81-.9,1.63-1.42,2.45s-1.11,1.6-1.65,2.41l0,0a3.13,3.13,0,0,0,1.43.64,5.37,5.37,0,0,0,5.41-2.07c2.27-2.9,3.68-3.2,5.22-2.6C34.57,18.61,29.71,15.22,25.74,17.47Z"/><path class="cls-4" d="M25.74,17.47l-.13.28c-.39.75-.83,1.52-1.32,2.27a9.94,9.94,0,0,1,10.28-1.41S29.71,15.22,25.74,17.47Z"/><path class="cls-10" d="M44.4,19.12v2.32H36.26V19.6l4.05-4.71H36.38V12.57H44.2v1.84l-4.05,4.71Z"/><path class="cls-10" d="M52.64,19.19v2.25H45.27V12.57h7.21v2.26H48.21v1H52V18H48.21v1.17Z"/><path class="cls-10" d="M62.53,12.57v8.87h-3V18.17H56.78v3.27h-3V12.57h3v3.14h2.76V12.57Z"/><path class="cls-10" d="M72.71,12.57v8.87H70.25l-3.37-4v4H64V12.57h2.45l3.37,4v-4Z"/><path class="cls-10" d="M74.14,12.57h3v8.87h-3Z"/><path class="cls-10" d="M81.82,20.73l1-2.18a6,6,0,0,0,2.92.81c.85,0,1.16-.17,1.16-.48,0-1.11-4.91-.21-4.91-3.52,0-1.65,1.38-3,4.13-3a7.07,7.07,0,0,1,3.35.77l-.9,2.17a5.54,5.54,0,0,0-2.47-.66c-.88,0-1.15.25-1.15.56,0,1.06,4.9.18,4.9,3.44,0,1.62-1.38,3-4.13,3A8,8,0,0,1,81.82,20.73Z"/><path class="cls-10" d="M98.06,19.19v2.25H90.69V12.57H97.9v2.26H93.63v1h3.75V18H93.63v1.17Z"/><path class="cls-10" d="M108,12.57v8.87h-3V18.17H102.2v3.27h-3V12.57h3v3.14H105V12.57Z"/><path class="cls-10" d="M115.43,19.89h-3.37l-.6,1.55h-3l3.88-8.87h2.94l3.87,8.87H116Zm-.83-2.15-.86-2.23-.86,2.23Z"/><path class="cls-10" d="M121.07,14.89h-2.6V12.57h8.19v2.32h-2.6v6.55h-3Z"/><path class="cls-11" d="M47.55,25.17v4.47h-.63v-2H44.35v2h-.64V25.17h.64v1.92h2.57V25.17Z"/><path class="cls-11" d="M52.91,29.08v.56H49.66V25.17h3.16v.55H50.3V27.1h2.24v.54H50.3v1.44Z"/><path class="cls-11" d="M57.56,28.52H55.18l-.49,1.12H54l2-4.47h.63l2,4.47h-.67ZM57.33,28l-1-2.19L55.4,28Z"/><path class="cls-11" d="M60.15,25.17h.64v3.91h2.42v.56H60.15Z"/><path class="cls-11" d="M65.19,25.72H63.65v-.55h3.7v.55H65.82v3.92h-.63Z"/><path class="cls-11" d="M72.66,25.17v4.47H72v-2H69.45v2h-.64V25.17h.64v1.92H72V25.17Z"/><path class="cls-11" d="M77.25,25.17h.64v4.47h-.64Z"/><path class="cls-11" d="M79.59,29.13l.24-.5a2.29,2.29,0,0,0,1.47.52c.78,0,1.11-.3,1.11-.69,0-1.1-2.71-.41-2.71-2.07,0-.69.54-1.28,1.71-1.28a2.59,2.59,0,0,1,1.44.4l-.21.51a2.3,2.3,0,0,0-1.23-.36c-.76,0-1.08.32-1.08.71,0,1.09,2.71.41,2.71,2.05,0,.68-.55,1.27-1.74,1.27A2.67,2.67,0,0,1,79.59,29.13Z"/><path class="cls-11" d="M93.54,25.17l-1.49,4.47h-.68l-1.22-3.57-1.22,3.57h-.68l-1.5-4.47h.66l1.21,3.63,1.26-3.63h.59l1.23,3.65,1.23-3.65Z"/><path class="cls-11" d="M98.33,29.08v.56H95.08V25.17h3.16v.55H95.72V27.1H98v.54H95.72v1.44Z"/><path class="cls-11" d="M103,28.52H100.6l-.49,1.12h-.66l2-4.47h.63l2,4.47h-.68Zm-.22-.51-1-2.19-1,2.19Z"/><path class="cls-11" d="M105.57,25.17h.64v3.91h2.43v.56h-3.07Z"/><path class="cls-11" d="M110.61,25.72h-1.53v-.55h3.7v.55h-1.54v3.92h-.63Z"/><path class="cls-11" d="M118.09,25.17v4.47h-.64v-2h-2.57v2h-.64V25.17h.64v1.92h2.57V25.17Z"/><rect class="cls-12" width="130" height="34"/></g></g></g></svg>